<?xml version="1.0" encoding="utf-8"?>
<!-- Generator: Adobe Illustrator 27.3.1, SVG Export Plug-In . SVG Version: 6.00 Build 0)  -->
<svg version="1.1" id="Слой_1" xmlns="http://www.w3.org/2000/svg" xmlns:xlink="http://www.w3.org/1999/xlink" x="0px" y="0px"
	 viewBox="0 0 841.9 595.3" style="enable-background:new 0 0 841.9 595.3;" xml:space="preserve">
<style type="text/css">
	.st0{fill:#050504;}
	.st1{fill:#120C0D;stroke:#222221;stroke-width:0.5;stroke-miterlimit:10;}
	.st2{fill:#120C0D;}
</style>
<g>
	<path class="st0" d="M396.4,359.9c-5.3-4.4-8.2-32.3,9.9-69.4c18.9-28.1,33.7-26.9,36-26.9c21.8,0,40.1,12.2,40.1,22.9
		c0,8-5.6,15.8-22.2,24.1c-2.9,1.5-17.9,11.1-22,14.2c-3.9,3.1-16.7,24.8-18,27.2C420.1,352,408.2,369.7,396.4,359.9z"/>
</g>
<g>
	<path class="st0" d="M386.9,372.6c-1.4-5.2-2.8-8.7-7.1-14.3c-3.4-4.5-7.2-4.6-9.9-5.2c-2.4-0.5-4.7,0.7-7.3,0.9
		c-5.7,0.6-16.3,7.2-16.9,7.8c-2.5,2.4-5.3,3.8-8.9,3.8c-1.3,0-14.2,1.4-16.6,2c-3.1,0.7-15.5,3.6-18.7,5.7
		c-1.5,1-22.6,1.4-25.1,0.5c-2.7-1-5.4-0.3-8.1-0.4c-3.5-0.1-24.4-4.2-27.1-7.4c-0.6-0.7-6.5-2.2-7.7-5.1
		c-0.8-2.2-10.7-11.6-13.2-15.4c-3.3-5-14-24.9-14.4-27.3c-2.5-15.6-8.2-10.7-7.4-17.7c0.3-3,2.8-5.7,3.5-6.3
		c7.1-6.5,2.8-13.1,8-21.9c0.8-1.3,0.2-7.1,2.8-11.9c1.2-2.2,26.2-21.6,27.5-23.2c4.3-5.5,15.4-8.5,27.5-10.4
		c5.3-0.8,10.4-5.2,10.9-5.4c7.4-3,24.4-4.4,24.7-4.3c10,1.5,20.7,7.6,21.2,7.8c2.9,1.3,5.8,2.5,8.7,3.7c4.4,1.9,8.1,4.7,10.9,8.6
		c4.6,6.5-0.2,10.1-3.3,7.4c-4-3.5-14.9-7.4-19.5-7.6c-1.6-0.1-9.2,6.1-9.9,6.6c-3.5,3-5.5,7.1-7.3,11.2c-0.9,1.9,0.2,6.9,2.8,8.8
		c1.9,1.4,2,6.2,2.2,7.9c0.2,1.8,1,2.9,2.5,3.9c3.6,2.2,13.2,1.7,15.9,1.6c1.1,0,2.2-0.1,3.3,0.2c7.9,2.2,1.7,27.5,1.6,34.4
		c-0.1,4.4-4.2,7.3-6,5.7c-0.7-0.7-1.5-1.4-2-2.3c-1.8-2.7-20.5-3.1-20.8-3c-9.2,1.4-21.5,6.9-24.7,6.9c-1.5,0-9.9-2.5-13.5-8.3
		c-1.7-2.7-6.2-13.1-7.6-17.6c-0.8-2.6-2-5-1.5-7.9c0.3-2,1-3.6,2.4-4.8c2.7-2.2,12.3-9.6,15.7-10c1.3-0.2,2.5-0.5,3.8-0.5
		c4.7-0.1,11.9-13.1,9.2-16.9c-1.2-1.7-2.4-3.3-2.6-5.4c-0.2-1.5-1.2-2.4-2.6-2.4c-2.7,0-5.3-1.3-8-0.7c-2.1,0.4-12.4,1.8-15.4,3.7
		c-5,3.1-19.7,12-20.9,15.7c-1.3,4.1-4.2,7.1-6.6,10.5c-0.5,0.7-5,19.6-5.2,21.9c-1.4,14,10.2,23.7,11.5,28.7
		c1.6,6.5,12,6.6,12.9,10.2c2.6,10.4,24.5,13,26.7,13.5c13.1,2.9,28.9,0.8,41.4-0.3c2.3-0.2,21.3-8.4,26.4-9.5
		c3-0.7,15.2-5.5,18.8-8.1c1.7-1.2,8.7-12.6,11.7-17.7c1.9-3.3,4.6-7.8,5.6-8.2c2.5-1.1,3-4.2,4-6.5c1.1-2.8-1.3-4.4-1.4-7.2
		c-0.9-29.8-11.6-23-12.8-34.3c0-0.2,0-0.4,0.1-0.5c3.1-5.5-1-13-5.3-21.6c-0.9-1.8-1.4-3.8-2.3-5.6c-1.4-2.7-3.8-6.9-6.9-8.8
		c-2.1-1.3-3-3.5-2.3-6c0.6-2.4-0.9-5.6-3.6-7.9c-2.2-1.9-16.5-13.8-27.9-17.1c-2-2.3-3.7-4.4-4.6-5.5c-2.3-2.7-6.3-2.2-6.7-3
		c-0.4-0.7-11.1-8.9-15-9.9c-1.1-0.3-2.2-0.5-3.3-0.8c-2.4-0.6-24.6-4.7-25.1-4.8c-2.8-0.6-8.8-0.5-9.1-0.5c-2.1,0.4-4.1,1-6.2,1.3
		c-2.6,0.4-12.8,0.4-15,0.5c-5.4,0.1-16,4.9-16.3,4.9c-4.3-0.6-19.5,10.8-22.8,11.2c-4.7,0.6-7.7,4-8.2,4.6c-1.7,1.8-3.2,3.7-4.3,6
		c-0.4,0.9-3,4.7-5.3,8.1c-4.9,7.1-8.1,14.9-8.8,16.7c-1.7,3.9-3.6,5.6-4.6,8.1c-0.9,2.2-0.8,4.4-0.5,6c3.4,14.3,22.1-7.6,23.7-11.2
		c0.6-1.4,16.7-14.5,28-13.8c1.2,0.1,6.4-2.4,6.6-7.1c0.1-1.9,2.1-3.6,3.6-4.9c0.8-0.6,14.1-1.2,14.6-1.6c1.5-1.3,16.2-2.2,27.1-2.6
		c-20.5,3.8-55.9,23.2-60.8,37.4c-1.6,1.7-3,9-6.1,14.1c-1.7,2.8-5.5,3.8-7.8,5.9c-12.7,11.3-13.7,39.4-13.8,44.7
		c0,0.3,2.6,3,2.9,6.7c0.2,2.2,1.5,8.8-1.6,14.8c-1.9,3.7-3.8,7.4-4.5,11.8c-1.5,8.9,0,15.1,2.6,17.4c2.2,2,4.6,3.9,5.2,7.1
		c0.6,3.3,2.9,14.9,0.1,16.7c-4.8,3.1-0.7,13.8,0.2,16.5c2.8,8,12.9,11.4,13.7,11.9c2,1.2,47.9,21.8,51.4,22.9
		c1.6,0.5,15.7,7.6,54.6,2.9c8-1,4.1-9.3,21.6-10.8c10.9-1,24.2-11.5,26.7-12.4c9.6-3.6,10.4-4.7,18.3-8
		C382.6,385.6,389.4,382.1,386.9,372.6z"/>
	<path class="st0" d="M137.8,313.5c-3.5-4.5-5.9-24.2-5.3-27.2c0.2-1.3,1-2.4,2.2-3.5c2.5-2.3,6.7-7.9,7.1-9.1
		c5-18,17-13.4,18.2-9.5c0.4,1.3-4.1,16-4.4,16.7c-0.4,0.8-3.9,22.7-3.8,26.6c0,1-1.3,18.9,4.6,27.5c2.1,3.1,0.1,0.2,5.5,5.4
		c0.7,0.6,3.8,2.6,1.4,7.2c-0.3,0.6-22.4,2.2-20-7.5C143.3,339.8,139.2,315.4,137.8,313.5z"/>
</g>
<g>
	<path class="st1" d="M489,200.6c-0.1-0.1-1.6-2.5-4.1-4.3c-2.3-1.7-5.2-2.5-8.7-2.5c-4.5,0-8.1,1.3-10.7,3.8
		c-2.5,2.5-3.7,6.1-3.7,10.9l0.1,45.7l0,2.2h2.2h5.4h2.2v-2.2v-26.4h10.4h2.2v-2.2v-5v-2.2h-2.2h-10.6v-9.8c0-1.3,0-2.9,1.6-4.3
		c1.3-1.2,3-1.3,3.5-1.3c1.9,0,3.2,0.8,3.6,1.1c0.9,0.6,1.5,1.3,1.8,1.8c0.4,0.6,0.8,1.2,1.2,1.9c0.6-0.4,1.1-0.9,1.7-1.3l3.6-2.9
		l1.5-1.2L489,200.6z"/>
	<path class="st1" d="M456.4,200.6c-0.1-0.1-1.6-2.5-4.1-4.3c-2.3-1.7-5.2-2.5-8.7-2.5c-4.5,0-8.1,1.3-10.7,3.8
		c-2.5,2.5-3.7,6.1-3.7,10.9l0.1,45.7l0,2.2h2.2h5.4h2.2v-2.2v-26.4h10.4h2.2v-2.2v-5v-2.2h-2.2h-10.6v-9.8c0-1.3,0-2.9,1.6-4.3
		c1.3-1.2,3-1.3,3.5-1.3c1.9,0,3.2,0.8,3.6,1.1c0.9,0.6,1.5,1.3,1.8,1.8c0.4,0.6,0.8,1.2,1.2,1.9c0.6-0.4,1.1-0.9,1.7-1.3l3.6-2.9
		l1.5-1.2L456.4,200.6z"/>
</g>
<g>
	<path class="st2" d="M504.6,218.1v24.1l15.5-24.1h10v38.6h-10v-24.1l-15.5,24.1h-10v-38.6H504.6z"/>
	<path class="st2" d="M564.4,239.4l10.3-21.3h11.6v38.6h-9.1v-25.5L567,251.5h-5.3l-10.2-20.3v25.5h-9.1v-38.6h11.7L564.4,239.4z"/>
	<path class="st2" d="M615.3,257.8c-3,0-5.7-0.5-8.3-1.5c-2.5-1-4.7-2.4-6.5-4.2s-3.2-4-4.2-6.4c-1-2.5-1.5-5.2-1.5-8.1
		s0.5-5.7,1.5-8.1c1-2.5,2.4-4.6,4.2-6.4c1.8-1.8,4-3.2,6.5-4.2s5.3-1.5,8.3-1.5s5.8,0.5,8.3,1.5s4.7,2.4,6.5,4.2s3.2,4,4.2,6.4
		c1,2.5,1.5,5.2,1.5,8.1s-0.5,5.7-1.5,8.1c-1,2.5-2.4,4.6-4.2,6.4c-1.8,1.8-4,3.2-6.5,4.2S618.4,257.8,615.3,257.8z M615.3,248.5
		c1.5,0,2.9-0.3,4.1-0.8c1.3-0.5,2.4-1.3,3.3-2.3c0.9-1,1.6-2.2,2.2-3.6c0.5-1.4,0.8-2.8,0.8-4.4c0-1.6-0.3-3.1-0.8-4.5
		c-0.5-1.3-1.2-2.5-2.2-3.5c-0.9-1-2-1.8-3.3-2.3s-2.6-0.8-4.1-0.8s-2.9,0.3-4.1,0.8c-1.3,0.5-2.4,1.3-3.3,2.3
		c-0.9,1-1.6,2.2-2.2,3.5c-0.5,1.3-0.8,2.8-0.8,4.5c0,1.6,0.3,3.1,0.8,4.4c0.5,1.4,1.2,2.5,2.2,3.6c0.9,1,2,1.8,3.3,2.3
		C612.5,248.3,613.8,248.5,615.3,248.5z"/>
	<path class="st2" d="M645.7,256.6V218h19.6c2,0,3.8,0.3,5.3,0.8s2.7,1.3,3.7,2.2s1.7,2,2.2,3.2s0.7,2.5,0.7,3.9c0,2-0.5,3.6-1.4,5
		s-2.2,2.4-3.9,3.2c2.2,0.8,3.8,2,5,3.6s1.8,3.6,1.8,5.9c0,3.3-1.2,6-3.6,8c-2.4,2-5.4,3-9.2,3h-20.2V256.6z M653.2,233.2h9.2
		c1.3,0,2.4-0.4,3.1-1.2c0.7-0.8,1-1.7,1-2.7s-0.3-1.9-1-2.7c-0.7-0.7-1.7-1.1-3.1-1.1h-9.2V233.2z M653.2,249h9.1
		c1.4,0,2.5-0.4,3.3-1.2s1.2-1.8,1.2-3s-0.4-2.2-1.2-3s-1.9-1.2-3.3-1.2h-9.1V249z"/>
</g>
<g>
	<path class="st0" d="M435.7,862.4c-5.3-4.4-8.2-32.3,9.9-69.4c18.9-28.1,33.7-26.9,36-26.9c21.8,0,40.1,12.2,40.1,22.9
		c0,8-5.6,15.8-22.2,24.1c-2.9,1.5-17.9,11.1-22,14.2c-3.9,3.1-16.7,24.8-18,27.2C459.4,854.5,447.5,872.2,435.7,862.4z"/>
</g>
<g>
	<path class="st0" d="M426.2,875.1c-1.4-5.2-2.8-8.7-7.1-14.3c-3.4-4.5-7.2-4.6-9.9-5.2c-2.4-0.5-4.7,0.7-7.3,0.9
		c-5.7,0.6-16.3,7.2-16.9,7.8c-2.5,2.4-5.3,3.8-8.9,3.8c-1.3,0-14.2,1.4-16.6,2c-3.1,0.7-15.5,3.6-18.7,5.7
		c-1.5,1-22.6,1.4-25.1,0.5c-2.7-1-5.4-0.3-8.1-0.4c-3.5-0.1-24.4-4.2-27.1-7.4c-0.6-0.7-6.5-2.2-7.7-5.1
		c-0.8-2.2-10.7-11.6-13.2-15.4c-3.3-5-14-24.9-14.4-27.3c-2.5-15.6-8.2-10.7-7.4-17.7c0.3-3,2.8-5.7,3.5-6.3
		c7.1-6.5,2.8-13.1,8-21.9c0.8-1.3,0.2-7.1,2.8-11.9c1.2-2.2,26.2-21.6,27.5-23.2c4.3-5.5,15.4-8.5,27.5-10.4
		c5.3-0.8,10.4-5.2,10.9-5.4c7.4-3,24.4-4.4,24.7-4.3c10,1.5,20.7,7.6,21.2,7.8c2.9,1.3,5.8,2.5,8.7,3.7c4.4,1.9,8.1,4.7,10.9,8.6
		c4.6,6.5-0.2,10.1-3.3,7.4c-4-3.5-14.9-7.4-19.5-7.6c-1.6-0.1-9.2,6.1-9.9,6.6c-3.5,3-5.5,7.1-7.3,11.2c-0.9,1.9,0.2,6.9,2.8,8.8
		c1.9,1.4,2,6.2,2.2,7.9c0.2,1.8,1,2.9,2.5,3.9c3.6,2.2,13.2,1.7,15.9,1.6c1.1,0,2.2-0.1,3.3,0.2c7.9,2.2,1.7,27.5,1.6,34.4
		c-0.1,4.4-4.2,7.3-6,5.7c-0.7-0.7-1.5-1.4-2-2.3c-1.8-2.7-20.5-3.1-20.8-3c-9.2,1.4-21.5,6.9-24.7,6.9c-1.5,0-9.9-2.5-13.5-8.3
		c-1.7-2.7-6.2-13.1-7.6-17.6c-0.8-2.6-2-5-1.5-7.9c0.3-2,1-3.6,2.4-4.8c2.7-2.2,12.3-9.6,15.7-10c1.3-0.2,2.5-0.5,3.8-0.5
		c4.7-0.1,11.9-13.1,9.2-16.9c-1.2-1.7-2.4-3.3-2.6-5.4c-0.2-1.5-1.2-2.4-2.6-2.4c-2.7,0-5.3-1.3-8-0.7c-2.1,0.4-12.4,1.8-15.4,3.7
		c-5,3.1-19.7,12-20.9,15.7c-1.3,4.1-4.2,7.1-6.6,10.5c-0.5,0.7-5,19.6-5.2,21.9c-1.4,14,10.2,23.7,11.5,28.7
		c1.6,6.5,12,6.6,12.9,10.2c2.6,10.4,24.5,13,26.7,13.5c13.1,2.9,28.9,0.8,41.4-0.3c2.3-0.2,21.3-8.4,26.4-9.5
		c3-0.7,15.2-5.5,18.8-8.1c1.7-1.2,8.7-12.6,11.7-17.7c1.9-3.3,4.6-7.8,5.6-8.2c2.5-1.1,3-4.2,4-6.5c1.1-2.8-1.3-4.4-1.4-7.2
		c-0.9-29.8-11.6-23-12.8-34.3c0-0.2,0-0.4,0.1-0.5c3.1-5.5-1-13-5.3-21.6c-0.9-1.8-1.4-3.8-2.3-5.6c-1.4-2.7-3.8-6.9-6.9-8.8
		c-2.1-1.3-3-3.5-2.3-6c0.6-2.4-0.9-5.6-3.6-7.9c-2.2-1.9-16.5-13.8-27.9-17.1c-2-2.3-3.7-4.4-4.6-5.5c-2.3-2.7-6.3-2.2-6.7-3
		c-0.4-0.7-11.1-8.9-15-9.9c-1.1-0.3-2.2-0.5-3.3-0.8c-2.4-0.6-24.6-4.7-25.1-4.8c-2.8-0.6-8.8-0.5-9.1-0.5c-2.1,0.4-4.1,1-6.2,1.3
		c-2.6,0.4-12.8,0.4-15,0.5c-5.4,0.1-16,4.9-16.3,4.9c-4.3-0.6-19.5,10.8-22.8,11.2c-4.7,0.6-7.7,4-8.2,4.6c-1.7,1.8-3.2,3.7-4.3,6
		c-0.4,0.9-3,4.7-5.3,8.1c-4.9,7.1-8.1,14.9-8.8,16.7c-1.7,3.9-3.6,5.6-4.6,8.1c-0.9,2.2-0.8,4.4-0.5,6c3.4,14.3,22.1-7.6,23.7-11.2
		c0.6-1.4,16.7-14.5,28-13.8c1.2,0.1,6.4-2.4,6.6-7.1c0.1-1.9,2.1-3.6,3.6-4.9c0.8-0.6,14.1-1.2,14.6-1.6c1.5-1.3,16.2-2.2,27.1-2.6
		c-20.5,3.8-55.9,23.2-60.8,37.4c-1.6,1.7-3,9-6.1,14.1c-1.7,2.8-5.5,3.8-7.8,5.9c-12.7,11.3-13.7,39.4-13.8,44.7
		c0,0.3,2.6,3,2.9,6.7c0.2,2.2,1.5,8.8-1.6,14.8c-1.9,3.7-3.8,7.4-4.5,11.8c-1.5,8.9,0,15.1,2.6,17.4c2.2,2,4.6,3.9,5.2,7.1
		c0.6,3.3,2.9,14.9,0.1,16.7c-4.8,3.1-0.7,13.8,0.2,16.5c2.8,8,12.9,11.4,13.7,11.9c2,1.2,47.9,21.8,51.4,22.9
		c1.6,0.5,15.7,7.6,54.6,2.9c8-1,4.1-9.3,21.6-10.8c10.9-1,24.2-11.5,26.7-12.4c9.6-3.6,10.4-4.7,18.3-8
		C421.9,888.1,428.7,884.6,426.2,875.1z"/>
	<path class="st0" d="M177.1,816c-3.5-4.5-5.9-24.2-5.3-27.2c0.2-1.3,1-2.4,2.2-3.5c2.5-2.3,6.7-7.9,7.1-9.1c5-18,17-13.4,18.2-9.5
		c0.4,1.3-4.1,16-4.4,16.7c-0.4,0.8-3.9,22.7-3.8,26.6c0,1-1.3,18.9,4.6,27.5c2.1,3.1,0.1,0.2,5.5,5.4c0.7,0.6,3.8,2.6,1.4,7.2
		c-0.3,0.6-22.4,2.2-20-7.5C182.6,842.3,178.5,817.9,177.1,816z"/>
</g>
<g>
	<path class="st2" d="M697.1,737c-0.1-0.2-3.7-5.9-9.7-10.3c-5.5-4-12.4-6-20.6-6c-10.6,0-19.3,3.2-25.3,9.1
		c-5.9,5.9-8.9,14.6-8.9,25.8l0.2,108.5l0,5.2h5.2h12.8h5.2v-5.2v-62.7h24.7h5.2v-5.2v-11.9v-5.2h-5.2h-25.2v-23.3
		c-0.1-3,0-6.9,3.8-10.3c3.2-2.9,7-3,8.3-3c4.4-0.1,7.6,1.9,8.6,2.7c2.1,1.5,3.7,3.1,4.3,4.2c1.1,1.4,1.9,2.9,2.8,4.5
		c1.3-1.1,2.6-2.1,4-3.2l8.5-6.9l3.6-2.9L697.1,737z"/>
	<path class="st2" d="M619.6,737c-0.1-0.2-3.7-5.9-9.7-10.3c-5.5-4-12.4-6-20.6-6c-10.6,0-19.3,3.2-25.3,9.1
		c-5.9,5.9-8.9,14.6-8.9,25.8l0.2,108.5l0,5.2h5.2h12.8h5.2v-5.2v-62.7h24.7h5.2v-5.2v-11.9v-5.2h-5.2h-25.2v-23.3
		c-0.1-3,0-6.9,3.8-10.3c3.2-2.9,7-3,8.3-3c4.4-0.1,7.6,1.9,8.6,2.7c2.1,1.5,3.7,3.1,4.3,4.2c1.1,1.4,1.9,2.9,2.8,4.5
		c1.3-1.1,2.6-2.1,4-3.2l8.5-6.9l3.6-2.9L619.6,737z"/>
</g>
<g>
	<path class="st2" d="M734.6,778.2v57.2l36.8-57.2h23.7v91.6h-23.7v-57.2l-36.8,57.2h-23.7v-91.6H734.6z"/>
	<path class="st2" d="M876.6,828.7l24.4-50.6h27.5v91.6h-21.6v-60.5l-24.2,48.2h-12.6L846,809.3v60.5h-21.6v-91.6h27.8L876.6,828.7z
		"/>
	<path class="st2" d="M997.4,872.4c-7.1,0-13.5-1.2-19.7-3.6c-5.9-2.4-11.2-5.7-15.4-10s-7.6-9.5-10-15.2
		c-2.4-5.9-3.6-12.3-3.6-19.2c0-6.9,1.2-13.5,3.6-19.2c2.4-5.9,5.7-10.9,10-15.2c4.3-4.3,9.5-7.6,15.4-10c5.9-2.4,12.6-3.6,19.7-3.6
		s13.8,1.2,19.7,3.6c5.9,2.4,11.2,5.7,15.4,10s7.6,9.5,10,15.2c2.4,5.9,3.6,12.3,3.6,19.2c0,6.9-1.2,13.5-3.6,19.2
		c-2.4,5.9-5.7,10.9-10,15.2s-9.5,7.6-15.4,10C1011.1,871.2,1004.7,872.4,997.4,872.4z M997.4,850.3c3.6,0,6.9-0.7,9.7-1.9
		c3.1-1.2,5.7-3.1,7.8-5.5c2.1-2.4,3.8-5.2,5.2-8.5c1.2-3.3,1.9-6.6,1.9-10.4s-0.7-7.4-1.9-10.7c-1.2-3.1-2.8-5.9-5.2-8.3
		c-2.1-2.4-4.7-4.3-7.8-5.5c-3.1-1.2-6.2-1.9-9.7-1.9c-3.6,0-6.9,0.7-9.7,1.9c-3.1,1.2-5.7,3.1-7.8,5.5c-2.1,2.4-3.8,5.2-5.2,8.3
		c-1.2,3.1-1.9,6.6-1.9,10.7c0,3.8,0.7,7.4,1.9,10.4c1.2,3.3,2.8,5.9,5.2,8.5c2.1,2.4,4.7,4.3,7.8,5.5
		C990.7,849.8,993.8,850.3,997.4,850.3z"/>
	<path class="st2" d="M1069.5,869.5v-91.6h46.5c4.7,0,9,0.7,12.6,1.9s6.4,3.1,8.8,5.2c2.4,2.1,4,4.7,5.2,7.6
		c1.2,2.8,1.7,5.9,1.7,9.3c0,4.7-1.2,8.5-3.3,11.9s-5.2,5.7-9.3,7.6c5.2,1.9,9,4.7,11.9,8.5c2.8,3.8,4.3,8.5,4.3,14
		c0,7.8-2.8,14.2-8.5,19c-5.7,4.7-12.8,7.1-21.8,7.1h-47.9V869.5z M1087.3,814h21.8c3.1,0,5.7-0.9,7.4-2.8c1.7-1.9,2.4-4,2.4-6.4
		c0-2.4-0.7-4.5-2.4-6.4c-1.7-1.7-4-2.6-7.4-2.6h-21.8V814z M1087.3,851.5h21.6c3.3,0,5.9-0.9,7.8-2.8c1.9-1.9,2.8-4.3,2.8-7.1
		c0-2.8-0.9-5.2-2.8-7.1c-1.9-1.9-4.5-2.8-7.8-2.8h-21.6V851.5z"/>
</g>
</svg>
