<?xml version="1.0" encoding="utf-8"?>
<!-- Generator: Adobe Illustrator 27.3.1, SVG Export Plug-In . SVG Version: 6.00 Build 0)  -->
<svg version="1.1" id="Слой_1" xmlns="http://www.w3.org/2000/svg" xmlns:xlink="http://www.w3.org/1999/xlink" x="0px" y="0px"
	 viewBox="0 0 373.8 343.2" style="enable-background:new 0 0 373.8 343.2;" xml:space="preserve">
<g>
	<path d="M171.1,310c0.3-0.6,0.5-1,0.6-1.4c0.5-1.4,0.2-2.2-1-3c-2.2-1.4-4-2.9-5.7-5c-1.6-1.9-3.6-3.6-6.5-3.6
		c-3,0-5.2-1.9-7.4-3.5c-2-1.5-3.6-1.5-5.2,0.5c-0.9,1-2,1.6-2.5,3c-1.2,3.2-1,6.4-0.2,9.6c0.3,1.1,0.3,2.2,0.3,3.3
		c0,1.6,0.4,3,1.6,4.1c0.1,0.1,0.3,0.2,0.3,0.4c0.9,2.8,3.3,4.2,5.4,5.9c0.9,0.7,2,1.4,3.1,1.7c2.8,0.7,5.7,1.2,8.6,1.7
		c1.4,0.2,2.9,0.3,4.3,0.1c8.4-0.7,16.7-0.3,25.1,0.2c4.1,0.3,8.1,0.2,12.2,0.1c5.4,0,10.9,0,16.3-0.3c4.9-0.2,9.7-0.7,14.5-1.1
		c1.7-0.2,2.3-0.9,2.4-2.7c0-0.5,0-1.1,0-1.9c0.7,0.2,1.4,0.2,1.7,0.5c1.4,1.7,3.2,1.5,5,1.5c1.7,0,3.4,0.2,5-0.1
		c3.1-0.6,6.7,0,8.9-3.2c0.2-0.3,0.6-0.6,1-0.7c2.6-0.6,5.2-1.2,8-1.1c3.4,0.2,6.8-0.4,9.3-3.4c1.4-1.7,2.9-3.2,4.4-4.7
		c2.1-2.1,2-4.6,1.5-7.2c-0.6-2.8-0.4-3.5,2-5.2c0.3-0.2,0.6-0.5,0.9-0.7c0.1-0.1,0.1-0.3,0.2-0.5c-0.4-1-0.7-2-1.3-3
		c-0.8-1.4-2-2.2-3.7-2.2c-1.3-0.1-2.7-0.2-4-0.3c-0.8,0-1.6,0-2.4,0.2c-4.1,1.2-8.3,1.4-12.5,1.1c-3.4-0.3-6.6,0.6-9.7,2
		c-0.3,0.1-0.6,0.4-0.7,0.6c-0.8,1.6-2.2,1.7-3.8,1.9c-1.3,0.1-2.7,0.4-3.9,1c-3.8,2.2-8.1,2.8-12.3,3.6c-3.3-0.9-6.4,0.6-9.7,0.3
		c-2.9-0.3-5.6,0.4-8.4,0.8c-3.4,0.6-6.8,0.8-10.2,0.8c-2.8,0.1-4.3-1.2-4.8-3.2c-0.4-1.5,0-2.3,1.3-3.2c2.4-1.7,4.6-3.6,5.1-6.8
		c0.1-0.7,0.6-1.3,0.9-1.9c0.5-0.7,1-1.4,1.6-2.1c0.3-0.4,0.6-0.8,0.9-1c2.9-1.8,5.8-3.5,9.2-4.4c0.8-0.2,1.7-0.6,2.4-1
		c4.1-2.2,8.3-4,12.1-6.6c1.4-1,2.6-2.4,3.8-3.6c0.8-0.9,1.6-1.8,2.3-2.8c1-1.4,0.8-2.2-0.6-3.2c-1.7-1.1-3.3-2.3-5.4-2.1
		c-0.9,0.1-1.4-0.5-1.8-1.3c-0.7-1.3-1.6-2.6-2.3-3.9c-0.7-1.3-1.9-1.7-3.2-1.9c-1.9-0.2-3.8-0.4-5.7-0.5c-2.2-0.1-4.3,0.1-6.1,1.5
		c-0.2,0.2-0.6,0.4-0.9,0.4c-2.3,0-4.3,0.8-6.4,1.6c-2,0.7-3.7,1.7-5,3.3c-0.4,0.5-1,1.1-1.6,1.3c-1.4,0.6-2.6,0-2.8-1.5
		c-0.4-2.6-2.6-3.9-4.2-5.6c-0.2-0.2-0.7-0.3-1.1-0.3c-2.9-0.4-5.9-0.7-8.8-1c-4.4-0.6-8.5-2.1-12.1-4.8c-1.2-0.9-2-2.3-2.8-3.5
		c-0.7-1-0.5-2.6,0.3-3.6c0.8-1,1.9-1.2,3.5-0.4c2.9,1.3,6.1,1.9,9.2,2.5c3.5,0.7,7,0,10.4-0.9c1.2-0.3,2.4-1.3,3.2-2.3
		c1.1-1.3,1.9-2.9,2.8-4.4c0.4-0.6,0.6-1.3,1-1.9c2.3-3.7,3-7.9,3.6-12c0.1-0.7,0-1.7-0.4-2.3c-1.2-1.8-2.1-4-4.4-4.8
		c-1.1-0.4-1.7-1.1-2.1-2.2c-0.6-1.5-1.4-2.9-2-4.4c-0.6-1.5-1.7-2.4-3.3-2.8c-3-0.8-5.8-0.3-8.6,0.7c-2,0.7-4,1.4-6.1,2
		c-1,0.3-2,0.7-3,0.7c-2.5,0-5.1-2.5-5.7-5.3c-0.5-2.2-1.1-4.3-1.6-6.5c-0.4-1.7-0.6-3.4-0.8-5.2c-0.1-1.1,0.1-2.3-0.4-3.3
		c-1.4-3.3-1.3-6.9-2.2-10.3c-0.6-2.2,0.3-4.1,1.2-5.9c0.6-1.2,1.4-1.3,2.6-0.7c0.9,0.4,1.7,0.9,2.4,1.5c1.6,1.3,3.3,1.4,5.2,0.9
		c1.8-0.5,3.7-0.9,5.6-1.3c0.6-0.1,1.3-0.3,1.9-0.2c1.1,0.2,1.8-0.2,2.7-0.6c1.1-0.6,2.3-1,3.5-1.4c0.2-0.1,0.5-0.1,0.7-0.2
		c4.2-2,8.3-4,12.1-6.7c0.6-0.4,1.1-0.9,1.6-1.5c1.9-2.1,4-3.8,6.8-4.6c1.3-0.4,2.9-0.4,4.3-0.2c3.6,0.6,7.3,1.4,10.1,4
		c1.8,1.6,3.6,3.3,5.1,5.2c2.3,2.7,4.4,5.6,6.4,8.5c1.4,2.1,3.1,4,3.5,6.7c0.3,1.9,0.1,3.5-0.9,5c-1.7,2.5-3.6,4.8-5.5,7.2
		c-0.5,0.7-1.3,1.3-1.6,2.1c-0.9,2-2.5,3.1-4.3,3.9c-1.1,0.5-2.2,1.1-3.3,1.4c-1.7,0.6-2.6,1.8-3.1,3.4c-0.7,2.4-1.6,4.9-2.1,7.3
		c-0.3,1.5-0.3,3.2,0,4.7c0.1,0.8,0.9,1.7,1.6,2.2c1.5,1.2,3,2.3,3.8,4.2c0.6,1.3,1.7,1.8,2.9,1.5c2.4-0.7,5.1-0.3,7.4-1.5
		c1.5-0.8,3.1-1.5,4.7-2.3c0.5-0.2,1-0.6,1.5-0.7c2.8-0.6,4.8-2.4,6.6-4.5c3.6-4,7-8.2,10.5-12.4c0.6-0.7,1.1-1.3,1.7-2
		c1.4-1.5,2.3-3.3,2.4-5.4c0.1-4,1.9-7.5,3.1-11.2c0.2-0.7,1.1-1.3,1.6-1.8c-0.1-1.8-0.2-3.7-0.4-5.5c-0.3-2.5-0.8-5-1.2-7.5
		c-0.3-2.1-0.6-4.2-1-6.3c-0.3-1.3-0.6-2.6-1-3.9c-0.2-0.5-0.5-1.1-0.9-1.3c-1.5-0.7-2.3-1.9-3-3.2c-1.2-2.1-3-3.9-3.2-6.5
		c0-0.6-0.5-1.2-1-1.6c-1.5-1.4-3.1-2.7-4.7-4c-0.5-0.4-1.1-0.7-1.7-0.7c-1.3,0.1-1.9-0.6-2.5-1.5c-0.4-0.6-0.6-1.3-1.2-1.8
		c-0.8-0.7-1.7-1.7-2.7-1.8c-2-0.2-4.1-0.7-6.2-0.2c-2.4,0.6-3,0.2-4.3-2c-1.2-2-2.7-3.5-5.1-4.2c-5.6-1.6-11.2-2.4-17-1.4
		c-1.8,0.3-3.6,0.4-5.5,0.5c-3.3,0.2-6,1.9-9.1,2.9c-0.9,0.3-1.8,0.6-2.8,0.7c-2.7,0.3-5.4,0.3-8.1,0.8c-2.2,0.4-4.4,1.3-6.6,2
		c-1.7,0.6-3.3,1.2-4.9,1.8c-0.2,0.1-0.5,0.1-0.7,0.3c-1.3,1.8-3.3,2.1-5.1,2.8c-0.9,0.3-1.6,1.1-2.3,1.6c-0.6,0.4-1.1,1-1.8,1.2
		c-2.5,0.8-4.1,2.8-5.9,4.6c-1.1,1-2.4,1.8-3.6,2.7c-2.5,1.8-4.7,3.9-7.5,5.4c-2.4,1.3-4.4,3.3-6.6,5c-0.9,0.7-1.9,1.2-2.7,1.9
		c-1.9,1.7-3.9,3.4-5.4,5.3c-1.1,1.4-1.9,3.2-2.3,4.9c-1.3,4.7-2.3,9.4-3.4,14.1c-0.5,2.2-0.8,4.5-1.4,6.8c-0.2,0.8-0.8,1.6-1.4,2.1
		c-0.9,0.8-1.4,1.7-1.5,2.9c-0.1,1.3-0.2,2.7-0.3,4c-0.1,1.5,0.3,2.7,1.5,3.6c0.9,0.6,1.3,1.5,1.6,2.5c1.2,3.8,2.3,7.6,3.9,11.2
		c1.5,3.1,3.7,5.9,6.8,7.8c0.5,0.3,1.2,0.6,1.8,0.7c4.5,0.7,6.7,3.9,8.3,7.7c0.1,0.1,0.1,0.3,0.1,0.5c-0.8,3.3,0.9,6,2.4,8.7
		c0.4,0.6,0.6,1.3,1,1.9c0.2,0.4,0.5,1,0.8,1.1c3.1,1.1,4.3,4.1,6.3,6.3c1.3,1.4,2.3,3.1,3.6,4.5c1.1,1.2,2.5,2.1,3.7,3.2
		c1.4,1.3,2.9,2.3,4.8,2.9c2.2,0.6,3.6,2.3,3.7,4.8c0,0.9,0.1,1.7,1,2.3c0.2,0.1,0.4,0.3,0.5,0.5c0.3,2.3,2.2,2.6,3.9,3.3
		c2.6,1.2,5.3,1.7,8.1,1.2c1.3-0.2,2.6-0.4,4-0.5c1.6-0.2,3,1.2,2.8,3.1c-0.3,3-1,6-2.6,8.6c-1.8,2.8-3.6,5.7-5.3,8.5
		c-0.4,0.7-0.9,1.6-0.9,2.4c-0.1,2-0.9,3.7-2.2,5.2c-1.1,1.3-1.5,2.5-0.3,4c0.9,1.3,0.3,2.2-1.3,2.3
		C173.5,310.1,172.4,310,171.1,310z"/>
	<path d="M279.6,177.9c0.7,0.3,1.3,0.5,1.8,0.8c1,0.6,2.2,1.2,2.8,2.1c1.1,1.8,2.1,3.9,1.6,6.1c-0.3,1.5-1.4,2.8-2.3,4.1
		c-0.4,0.6-1,1-1.6,1.4c-3.3,2.4-5.1,5.7-5.7,9.8c-0.5,3.6-1.8,6.8-4,9.8c-0.7,1-1,2.3-1.3,3.5c-0.5,1.7-0.9,3.5-1.3,5.3
		c-0.1,0.3-0.2,0.7-0.1,0.9c1.1,3.1,0.2,6-0.7,8.9c-0.5,1.9-0.6,3.9-1.4,5.8c-0.7,1.6-0.9,3.6,0.6,4.9c1.5,1.3,3.4,1,5.2,0.5
		c0.3-0.1,0.6-0.2,0.9-0.4c3.2-1.7,6.6-3.2,9.6-5.3c3-2.1,5.7-4.7,7.2-8.3c1.1-2.7,2.9-5.1,4.1-7.8c1.3-2.9,3.6-5.2,4.3-8.4
		c0.4-1.8,0.5-3.5,0.2-5.2c-0.2-1.5,0.1-2.8,0.6-4.2c0.6-2,0.8-4.2,1.1-6.3c0-0.3-0.1-0.7-0.3-0.8c-1.9-1.5-1.7-3.6-1.6-5.7
		c0-1-0.1-1.9,0-2.9c0.3-3.8,0.7-7.4,3-10.8c2.2-3.2,4.3-6.5,5.4-10.5c1-3.7,1.3-7.3,1.5-11c0.1-2.4-0.7-3.9-2.1-5.5
		c-1.9-2.1-3.9-4.1-4.1-7.1c-0.2-2.6-0.9-5.2-0.3-7.8c0.2-1.1,0-2.2-0.2-3.3c-0.4-2.4-0.1-3.3,2.1-4.4c0.4-0.2,0.8-0.3,1.1-0.4
		c1.4-0.6,1.7-1.7,1.6-3.1c-0.1-1.5-0.6-3.1,0.7-4c-0.7-2.7-1.3-5.2-1.9-7.8c-0.9-3.8-2.9-6.8-6.3-8.9c-1.1-0.7-2.2-1.2-3.3-2
		c-0.7-0.5-1.3-1.1-2-1.6c-0.6-0.4-1.2-1-1.8-1.1c-2.5-0.1-4.3-1.8-6-3.2c-1.4-1.1-2.7-2.2-4.4-2.8c-1-0.4-2-1-2.9-1.6
		c-2.1-1.5-4.2-3.2-6.4-4.6c-2.2-1.4-4.6-2.6-6.9-3.9c-1.2-0.7-2.2-1.5-3.4-2.2c-1.6-1-3.2-2.1-4.9-3c-3-1.5-6-2.9-9.1-4.3
		c-0.8-0.3-1.7-0.3-2.5-0.6c-1-0.5-2-1.1-2.9-1.7c-1.9-1.4-3.8-2.4-6.2-2.7c-2.9-0.4-5.7-1.2-8.6-1.8c-0.8-0.2-1.6-0.2-2.4-0.1
		c-1.5,0.1-2.9-0.2-4.4-0.6c-2.2-0.7-4.7-0.9-7-0.9c-5.6,0-11.1,0.2-16.7,0.3c-1.4,0-2.6,0.4-3.7,1.2c-2.6,2-5.4,3.9-8.1,5.8
		c-0.4,0.3-1,0.7-1.5,0.7c-2.6,0.1-5.2,0.2-7.8,0.2c-4.1-0.1-8.1-0.1-12,1.4c-2.8,1.1-5.5,2.3-7.9,4.1c-1.8,1.4-3.8,2.7-6.2,3.3
		c-2.2,0.6-4.4,1.5-6.5,2.2c-0.4,0.2-0.9,0.4-1.2,0.7c-2.8,3.1-6.4,3.3-10.2,2.6c-3.1-0.6-6-0.3-8.9,1c-1.2,0.6-2.4,1.2-3.6,1.8
		c-0.3,0.2-0.8,0.5-0.8,0.8c-0.4,2-2.1,2.7-3.6,3.6c-1.9,1.1-2,2.5-0.6,4.1c0.3,0.3,0.8,0.5,0.8,0.8c0.4,2.1,2.2,3,3.2,4.6
		c1.1,1.6,2.5,2.6,4.2,3.4c1.8,0.8,1.9,1.1,1.6,3.1c-0.2,1.4-0.4,2.8-0.6,4.3c-0.2,1.2,0.1,2.5,1,3.3c1.4,1.4,3,2.7,5,3
		c2.4,0.3,4.8,0.6,7.1,0.6c3.6,0,6.9-0.9,10.1-2.6c1.5-0.8,3.1-1.3,4.6-1.9c0.7-0.3,1.4-0.5,1.9-1c2.6-2,5.3-3,8.7-2.6
		c1.1,0.1,2.2-0.4,3.3-0.4c2.3,0.1,4.6,0.4,6.9,0.4c1.8,0.1,3.7,0,5.5-0.2c2.8-0.3,5.7-0.6,8.5-1.3c3.1-0.8,6.5-0.5,9.5-2.1
		c1.4-0.7,3.3-0.7,4.9-0.8c3.1-0.1,6.2-0.2,9.3-0.1c1.2,0,2.5,0.4,3.7,0.8c1.9,0.6,3.7,1.4,5.5,2.2c2.4,1.2,5,0.8,7.5,1.2
		c3.1,0.4,6,1.6,8.9,2.6c3.1,1.1,6.1,2.2,9.1,3.4c2.3,0.9,4.9,1.4,6.5,3.7c0.4,0.6,1.3,0.9,2,1.3c0.8,0.5,1.8,0.8,2.4,1.4
		c0.9,0.8,1.8,1.4,2.2,2.8c0.6,2.1,2,3.8,3.6,5.4c1.5,1.5,2.6,3.3,3.8,5c1.2,1.7,2.4,3.5,3.4,5.3c1.4,2.6,2.8,5.2,3.5,8.1
		c0.4,1.4,1.3,2.7,2,4c0.1,0.3,0.5,0.5,0.5,0.8c0.4,2.9,2.3,5.2,3.3,7.8c0.7,2,1.1,4.2,1.2,6.3C280.9,172.4,281.2,175.3,279.6,177.9
		z"/>
	<path d="M97.3,280.4c2.6,0.1,5.1,0.1,7.5,1.1c1.1,0.5,2.5,0.7,3.7,0.6c3.3-0.4,6.2,1.1,9.3,2c0.9,0.3,1.8,0.5,2.8,0.7
		c0.2,0.1,0.6,0.1,0.7,0c1.5-1.3,3.8-1.4,4.9-3.4c1.3-2.3,1.6-4.6,0.7-7.1c-0.4-1.3-0.7-2.6-1.1-3.9c-0.4-1.5-1-2.7-2-4
		c-1.7-2.2-3-4.8-4.4-7.3c-0.2-0.4-0.2-0.9-0.2-1.4c0.1-3.6-0.3-7.2,0.4-10.7c0.6-3.1-0.1-6.2-0.9-9.2c-0.4-1.3-1.3-2.5-1.9-3.8
		c-1.1-2.7-2.2-5.4-3.2-8.2c-0.3-0.9-0.4-1.9-0.5-2.8c-0.1-2.1-0.1-4.2-0.1-6.2c0-1.2-0.4-2.2-1-3.3c-0.9-1.7-1.2-3.8-1.6-5.7
		c-1.1-5.5-0.7-10.9,0.1-16.4c0.2-1.8,0-3.6,0-5.5c0-0.7-0.1-1.4,0-2.1c0.1-1.5,0.2-3,0.5-4.5c0.3-1.2,0.6-2.4,1.2-3.5
		c2.1-4.3,4.8-8.4,6.5-12.9c1.4-3.7,2.3-7.7,1.9-11.7c-0.2-2.4-0.8-4.7-1.2-7c-0.1-0.8-0.3-1.6-0.3-2.3c0-4.9-1.3-9.4-4.4-13.3
		c-0.7-0.8-1.6-1.6-2.5-2.2c-1-0.7-2.1-1.1-3.1-1.8c-1-0.7-2-1.2-3.3-1.3c-2-0.2-3.3-1.7-4-3.4c-1.3-2.9-3.6-4.8-6-6.7
		c-0.5-0.5-1.4-0.8-0.9-1.6c0.3-0.5,1.2-0.5,1.8-0.7c0.2-0.1,0.5,0.1,0.7,0.1c1.7,0.2,3,0.1,4.4-1.5c2.5-2.7,4-5.8,5-9.2
		c0.4-1.5-0.1-2.7-0.9-3.8c-0.4-0.5-1.1-0.8-1.8-0.9c-2.5-0.3-3.9,1.5-5.6,2.8c-1.4,1.1-2.7,2.2-4,3.3c-1.1,0.8-2.4,1.2-3.8,1.3
		c-1,0.1-2.1,0.4-2.9,0.9c-3.7,2.3-7.3,4.8-11,7.2c-1,0.6-2.2,1-3.3,1.1c-1.2,0.1-2.1,0.6-2.9,1.4c-0.8,0.7-1.8,1.3-2.7,1.8
		c-1.4,0.7-2.5,1.6-3.3,3c-0.5,0.9-1.2,1.7-1.8,2.5c-0.2,0.3-0.4,0.7-0.6,1c-0.5,1.7-0.9,3.4-1.6,5c-1.5,3.3-2.1,6.8-2.9,10.3
		c-0.6,2.6-1.3,5.2-1.7,7.9c-0.2,1.2-0.1,2.4-0.1,3.6c-0.1,2.9-0.6,5.8-0.4,8.6c0.4,6.4-0.7,12.7-1.2,19.1
		c-0.4,4.5,0.1,8.9,0.2,13.4c0,1.9,0.8,3.7,1.2,5.6c0.3,1.5,0.6,3,0.6,4.5c0.1,5.2,0,10.4,0.1,15.6c0,3,0,5.9,0.3,8.9
		c0.2,2.2,0.8,4.4,1.2,6.6c0.6,3,1.1,6,1.7,8.9c0.2,1.1,0.8,2.1,1.3,3.1c2,4.3,4.2,8.4,7.7,11.7c1.2,3.2,4.6,4.8,6,7.9
		c0.3,0.5,0.9,0.9,1.3,1.3c0.7,0.7,1.3,1.3,2,2c0.6,0.6,1.2,1.3,1.7,2c0.8,1,1.5,2,2.4,2.9c1.1,1.2,2.4,2.3,3.6,3.4
		c0.5,0.4,1.1,0.7,1.4,1.2C89.5,279.1,93.2,280.1,97.3,280.4z"/>
	<path d="M71.3,60.6c-1,3,1.6,4.3,2.6,6.3c0.1,0.3,0.7,0.3,1.1,0.4c0.6,0.2,1.3,0.2,1.8,0.6c1.4,1.1,2.9,1.1,4.6,1
		c4.1-0.3,7.9-1.4,11.5-3.3c2.3-1.2,4.8-2.1,7.2-3c1.1-0.4,2.1-0.8,2.7-1.9c0.2-0.3,0.3-0.6,0.6-0.7c2.6-1.8,3.5-4.6,4-7.5
		c0.3-1.8,1.5-2.3,2.8-1c1.5,1.4,3,2.2,5.1,2.3c2.7,0.1,5.2-0.3,7.5-1.8c0.9-0.6,2-1,3-1.4c0.5-0.2,1.1-0.3,1.6-0.6
		c3.1-2.2,6.6-1.9,10.1-1.6c1.9,0.1,3.8,0,5.6-0.9c0.5-0.2,1.1-0.3,1.6-0.3c4.2-0.1,8.4-0.2,12.6-0.2c6.2,0,12.4,0.1,18.7,0.3
		c1.1,0,2.2,0.4,3.2,0.8c3.8,1.4,7.6,2.8,11,5.1c1.4,0.9,3,1.2,4.8,1.3c4,0.3,7-1,9.7-4c0.9-1.1,2.7-1.6,4.3-2
		c1.4-0.4,3-0.4,4.5-0.5c1.4-0.1,2.1,0.6,2.6,2.1c0.5,1.5,2.1,1.9,3.4,2.1c4.3,0.5,8.3,2,12,4c0.5,0.3,1.2,0.7,1.7,0.7
		c2.8-0.3,5.3,0.7,7.7,2c0.8,0.4,1.8,0.7,2.6,1.1c3.1,1.4,6.2,2.8,9.3,4.2c3.4,1.5,6.8,3.1,10.1,4.7c0.4,0.2,0.7,0.3,1.1,0.5
		c3.2,2.1,6.4,4.4,9.7,6.4c3,1.9,6.2,3.6,9.2,5.4c2.2,1.3,4.4,2.7,6.6,4.2c2.7,1.8,5.3,3.6,8.2,5c2.8,1.4,5.4,3.2,8,5
		c1.2,0.8,2.2,1.3,3.6,1.5c1.7,0.3,3.4,1.3,4.4,3.2c1.3,2.3,1.5,4.8,2.5,7.1c0.4,0.8,0.7,1.6,1.2,2.2c2,2.3,3.3,5,4.3,7.8
		c0.5,1.3,1.1,2.6,1.4,4c0.3,1.4,0.5,2.8,0.5,4.2c-0.1,1.8,0.6,3.1,1.9,4.1c1.2,0.9,2.5,1.7,3.6,2.7c0.8,0.7,1.3,1.8,1.7,2.8
		c0.4,1.1,0.7,2.4,0.6,3.5c-0.1,1.8,0.9,2.9,2.1,4c1.1,1,2.2,1.5,3.6,1.5c0.9,0,1.8-0.1,2.6,0c1.6,0.2,2.5-1,2.3-2.3
		c-0.7-4.3,0.4-8.8-1-13c-0.1-0.4-0.1-1-0.1-1.4c0.1-3-1.1-5.6-1.9-8.3c-0.1-0.4-0.6-0.8-0.8-1.2c-0.3-0.5-0.7-0.9-0.8-1.4
		c-0.7-3.7-1.4-7.4-2-11c-0.2-1.5,0-3-0.1-4.5c-0.3-2.9-1.8-5.2-4.7-6.2c-0.9-0.3-1.3-0.9-1.2-1.8c0.1-0.9,0.2-1.9,0.2-2.8
		c0-3.8-2.3-6.7-4.4-9.6c-0.7-1-1.5-2.1-1.8-3.3c-0.7-2.6-2.6-4.1-4.3-5.7c-1.1-1.1-2.3-2.1-3.5-3.2c-2.3-2.2-4.5-4.5-6.9-6.6
		c-3.9-3.5-7.1-7.7-11.3-10.9c-2.4-1.9-4.6-3.9-7.6-4.9c-0.6-0.2-1.1-0.7-1.6-1.1c-1.4-1.2-2.8-2.5-4.7-3.2
		c-1.9-0.7-3.4-2.1-5.2-3.2c-0.4-0.3-0.8-0.6-1.2-0.7c-3-1.1-6-1.9-8.9-3.2c-1.8-0.8-3.6-1.8-5.1-3c-1.8-1.4-3.7-2.4-5.8-3.3
		c-2.9-1.1-5.6-2.6-8.3-4.1c-2.6-1.4-5.5-1.6-8.1-2.6c-2.2-0.8-4.5-1.5-6.8-2.2c-0.7-0.2-1.4-0.3-2.1-0.4c-2.3-0.4-4.5-0.8-6.8-1.2
		c-0.3-0.1-0.7-0.1-0.9-0.3c-3.3-2.5-7.2-2.6-11-2.8c-4.5-0.3-9.1,0.1-13.6,0.4c-4.8,0.3-9.3-0.3-13.8-2.2c-3.6-1.6-7.5-2-11.5-1.8
		c-0.9,0.1-1.9,0.4-2.8,0.6c-3.7,0.7-7.2,1.6-10.6,3.3c-1.3,0.7-2.9,1-4.3,1.3c-3.3,0.6-6.2,2.5-9.3,3.5c-1.7,0.6-3.2,1.6-4.8,2.5
		c-0.4,0.2-0.9,0.6-1.3,0.6c-2.5-0.1-4.4,1.2-6.5,2.1c-1.8,0.8-3.8,1.2-5.6,2.1c-2.5,1.2-4.8,2.8-7.2,4.2c-1.9,1-3.4,2.9-5.9,2.6
		c-0.5-0.1-1.2,0.4-1.8,0.7c-1.7,0.7-3.5,1.1-5.1,2c-1.5,0.9-2.9,2.1-4.2,3.4c-0.7,0.7-1.1,1.7-1.6,2.7c-0.7,1.4-1.5,2.6-3.1,3.2
		c-0.7,0.3-1.2,1-1.8,1.6c-2.5,2.5-6.7,3.1-9.9,1.6c-2.1-1-4.3-2-6.8-2.2c-0.9-0.1-1.7-0.8-2.5-1.2c-1-0.5-1.9-1.2-3-1.4
		c-2.1-0.4-3.3,0.8-3.4,2.9c-0.1,2.4-0.3,2.8-2.7,3.1c-2.4,0.3-4.1,1.8-5.7,3.3c-0.7,0.8-0.9,2.2-1.1,3.3c-0.1,0.4,0.6,1.1,1.2,1.3
		c1.4,0.8,2.9,1.4,4.3,2C69.9,60,70.5,60.3,71.3,60.6z"/>
	<path d="M12.6,218.9c-3.7,8.8-3.2,44.5-2,49.6c0.6,2.2,1.8,4.1,3.4,5.6c3.7,3.5,10.2,12.4,10.8,14.5c9.8,30.8,24.5,19.8,25.5,12.7
		c0.3-2.4-8.3-27.5-8.8-28.7c-0.6-1.4-9.2-39.4-9.8-46.3c-0.2-1.7-1.2-5.6-1.3-6c-1.1-48.4,0.5-39.1,2.3-44
		c2.2-5.9,0.1-0.3,6.2-10.8c0.8-1.3,4.5-5.5,0.5-13.1c-0.6-1.1-29.5,1.4-24.6,18.1c0.1,0.4-0.1,1-0.2,1.4
		C9.8,182.4,14.1,215.3,12.6,218.9z"/>
	<path d="M327.7,193.5c-0.1,2.4,0.6,4.6,1.8,6.6c1.5,2.4,1.6,5.1,1.2,7.9c-0.2,1.3-0.4,2.7-0.4,4c0,1.1,0.3,2.2,1.3,2.9
		c1.8,1.2,2,3,1.6,4.9c-0.7,2.7-0.4,5.4,0,8.1c0.2,1.4,0.5,2.9-0.3,4.2c-0.4,0.7-0.9,1.5-1.6,2c-1.2,0.9-2.5,1.8-3.9,2.3
		c-3.3,1.2-5.5,3.8-7.9,6c-1.3,1.2-1.9,2.7-1.8,4.5c0.1,3,0.1,5.9,0.2,8.9c0,0.5,0,1.1,0.2,1.4c0.9,1.1,1.7,2.2,2.8,3.1
		c2.1,1.9,3.2,4.3,4.1,6.9c0.2,0.6,0.1,1.4,0,2.1c-0.1,1.5-0.1,2.9,1,4c1.7,1.7,4.8,1.2,5.9-0.9c1.8-3.4,3.8-6.8,5.3-10.3
		c0.8-1.9,1-4.2,1.2-6.3c0.4-2.8,0.6-5.7,0.9-8.6c0-0.3,0-0.7,0.2-0.9c1.5-2.1,0.5-4.3,0.1-6.5c-0.3-1.6-0.9-3.2-1.4-4.8
		c-0.1-0.2-0.2-0.5-0.3-0.6c-0.7-0.6-1.6-1.1-1.2-2.1c0.4-1.1,1.1-2.1,1.7-3.1c0.2-0.3,0.5-0.4,0.7-0.7c0.9-1.1,1.4-2.2,1.4-3.7
		c0-1.1,0.2-2.2,0.4-3.3c0.1-1.3,0.8-2.1,2.1-2.6c2-0.9,2.4-1.7,1.6-3.8c-0.3-0.9-0.3-1.5,0.2-2.2c1.1-1.6,2.1-3.3,2.2-5.4
		c0-0.4,0.2-0.8,0.4-1.1c0.7-1.4,1.4-1.6,2.7-0.8c2.2,1.3,2.8,1.1,4.1-1c2.3-3.8,4.7-7.6,7-11.3c1.8-2.8,2.6-5.8,1.1-9
		c-0.2-0.3-0.2-0.8-0.2-1.2c0.3-2.1-0.5-4-1-6.1c-1.3-5.1-7-5.3-10-3c-1.4,1-2.7,2.2-4.1,3.3c-0.5,0.4-1.1,0.6-1.7,0.7
		c-2.4,0.1-4.7,0.4-6.9,1.8c-0.8,0.5-1.9,0.4-2.7,0.9c-3,1.8-5.9,3.9-7.2,7.3C327.8,189.6,327.9,191.6,327.7,193.5z"/>
	<path d="M105.8,343.2c1.4-0.5,3.2-1,4.9-1.7c0.9-0.4,1.6-1.2,1.3-2.3c-0.5-2.3-0.5-4.8-2.8-6.4c-0.4-0.2-0.6-0.7-0.8-1.2
		c-0.7-1.5-1.9-2.5-3.3-3.3c-2.7-1.6-5.5-2.9-8-4.7c-2.2-1.5-4.1-3.3-6.1-5c-1.3-1.1-2.5-2.4-3.8-3.6c-0.2-0.2-0.5-0.4-0.8-0.5
		c-2.1-0.1-3.7-1.3-5.5-2.2c-0.4-0.2-0.7-0.4-1.1-0.5c-2.6-0.5-5.1-1.2-7.7-1.6c-1.1-0.2-2.2-0.2-3.1-1c-0.7-0.6-1.4-0.5-2.1,0.2
		c-1.1,1.2-1.8,2.4-1.1,4.3c1.4,3.5,2.4,7.1,3.8,10.6c1.1,2.7,2.2,5.6,4.5,7.5c1.8,1.5,4,2.6,6.1,3.7c2.6,1.3,5.4,2.5,8,3.7
		c3,1.5,6.1,2.3,9.4,2.5c1.6,0.1,3.1,0.7,4.6,1C103.2,342.9,104.3,343,105.8,343.2z"/>
	<path d="M49.1,86.3c2-1.2,4.8,0.7,6.8-1.4c0.3-0.3,1.1-0.2,1.6-0.2c2.6,0,4.8-1,6.6-2.9c0.6-0.7,1.5-1.2,2.2-1.8
		c1-0.9,1.2-1.7,0.2-2.6c-1.3-1.2-2.2-3.1-4.4-2.9c-1.2-1.5-3.2-1.2-4.6-2.2c-0.6-0.4-1.4-0.7-2.2-0.9c-0.8-0.3-1.5-0.1-2.2,0.5
		c-1.3,1.3-2.7,2.2-4.7,1.3c-1.1-0.5-4.4,1-4.8,2.1c-0.2,0.5-0.1,1.3,0.2,1.8c1.5,2.3,2.1,4.8,2.6,7.4
		C46.9,85.7,47.6,86.2,49.1,86.3z"/>
	<path d="M45.8,90.4c0,0.4-0.1,0.8,0,1.2c0.1,2.5-2.2,4.2-4.5,3.4c-0.6-0.2-1.1-0.9-1.4-1.4c-0.8-1.4-1.4-2.8-2.1-4.2
		c-2.6-0.1-4.3,1.2-4.4,3.4c-0.3,3.3-0.6,6.6-1.5,9.9c-0.6,2.2,0.3,3,2.5,2.4c0.5-0.1,1.1-0.3,1.6-0.3c1.2,0.1,2-0.3,2.8-1.3
		c0.9-1.2,2-1.1,2.9,0.1c1.2,1.6,3.5,2.3,5.2,1.2c1.7-1,3.4-1.9,4.7-3.6c1.9-2.6,1.6-5.3,0.1-8.1c-1.3-2.3-3.1-2.3-5-2.7
		C46.4,90.3,46.2,90.4,45.8,90.4z"/>
	<path d="M132.9,293c-2.5,0.6-5.1,1.2-7.6,1.9c-2,0.6-3.2,2.3-4.6,3.7c-1.1,1.1-0.6,3.5,0.5,4.8c1.6,2,3.6,3.3,6,4.1
		c2.4,0.8,4.6,0.7,6.9-0.5c2.4-1.2,3.7-3.4,5.2-5.3c1.5-1.9,0.7-4.2-0.1-6.2c-0.6-1.6-2.5-2-4.2-2.3c-0.7-0.1-1.4,0-2.1,0
		C133,293.2,133,293.1,132.9,293z"/>
	<path d="M25.3,146.9c1.9-1,2.8-2.1,2.8-3.9c0-0.5,0.1-1.1,0.3-1.6c0.8-2.6-0.4-4.9-1.6-7c-0.3-0.6-1.5-0.9-2.3-1
		c-1.5-0.1-3,0-4.5,0c-0.9,0-1.5,0.4-1.7,1.3c-0.5,1.6-1.1,3.2,0.1,4.8c0.5,0.6,1.2,1.4,1.9,1.7c1.9,0.6,3.1,1.8,3.8,3.7
		C24.2,145.5,24.7,146.1,25.3,146.9z"/>
	<path d="M68.4,68.7c1.4-0.1,2.5-1.7,1.8-2.5c-1.3-1.6-2.7-3.4-4.5-4.5c-1.7-1.1-3.8-1.4-5.8-1.9c-1.1-0.3-1.5,0.8-1.9,1.5
		c-0.2,0.4,0.1,1.1,0.2,1.7c0,0.2,0.3,0.4,0.5,0.5c3,1.8,5.8,3.9,9.1,5.1C68,68.7,68.3,68.7,68.4,68.7z"/>
	<path d="M286.9,288.8c0.3,0.5,0.5,1.1,0.9,1.4c0.7,0.5,1.4,0.1,1.8-0.6c0.8-1.3,1.8-1.7,3.2-1c1,0.5,1.7,0,2.4-0.5
		c1.2-1,2.4-2,3.6-3c0.7-0.6,0.7-1.2,0.2-1.9c-0.6-0.8-4.3-2.2-5.2-2c-0.4,0.1-0.8,0.3-1,0.6c-1.8,1.9-3.6,3.7-5.4,5.6
		C287.2,287.7,287.2,288.2,286.9,288.8z"/>
	<path d="M41.4,77.1c-1.2,0.1-1.6,0.8-1.5,1.5c0.1,0.5,0.4,1.2,0.9,1.5c0.6,0.3,1.6-0.9,1.5-1.7C42.2,77.9,41.7,77.5,41.4,77.1z"/>
</g>
</svg>
